<?xml version="1.0" encoding="utf-8"?>
<!-- Generator: Adobe Illustrator 26.0.2, SVG Export Plug-In . SVG Version: 6.00 Build 0)  -->
<svg version="1.1" id="Layer_1" xmlns="http://www.w3.org/2000/svg" xmlns:xlink="http://www.w3.org/1999/xlink" x="0px" y="0px"
	 viewBox="0 0 592 209" style="enable-background:new 0 0 592 209;" xml:space="preserve">
<style type="text/css">
	.st0{fill:#392C7D;}
	.st1{fill:#FF4667;}
	.st2{fill:#FFFFFF;}
	.st3{fill:none;stroke:#392C7D;stroke-width:3;stroke-linecap:round;stroke-miterlimit:10;}
</style>
<g>
	<path class="st0" d="M162.4,142.4c-6.1,0-11.6-1-16.5-3.1c-4.9-2-9-4.9-12.5-8.5c-3.4-3.6-6.1-7.8-8-12.4
		c-1.9-4.6-2.8-9.5-2.8-14.6c0-7,1.6-13.4,4.8-19.2c3.2-5.8,7.8-10.5,13.7-14c5.9-3.5,13-5.3,21.1-5.3c8.1,0,15.1,1.8,20.9,5.3
		c5.8,3.5,10.2,8.2,13.1,13.9l-18.8,5.7c-1.6-2.8-3.8-4.9-6.5-6.4c-2.7-1.5-5.6-2.2-8.9-2.2c-3.6,0-7,0.9-10,2.7
		c-3,1.8-5.4,4.4-7.1,7.7c-1.7,3.3-2.6,7.2-2.6,11.6c0,4.3,0.9,8.1,2.7,11.5c1.8,3.3,4.1,6,7.1,7.9c3,1.9,6.3,2.9,9.9,2.9
		c2.3,0,4.5-0.4,6.5-1.1c2.1-0.8,3.9-1.8,5.5-3.2c1.6-1.3,2.8-2.9,3.6-4.6l18.8,5.7c-1.7,3.7-4.2,7.1-7.5,10c-3.3,3-7.2,5.3-11.6,7
		C172.9,141.6,167.9,142.4,162.4,142.4z"/>
	<path class="st0" d="M242.3,142.4c-6.1,0-11.6-1-16.5-3.1c-4.9-2-9-4.8-12.4-8.4c-3.4-3.6-6-7.7-7.8-12.3
		c-1.8-4.6-2.7-9.5-2.7-14.6c0-5.2,0.9-10.1,2.7-14.8c1.8-4.6,4.4-8.7,7.8-12.3c3.4-3.6,7.5-6.4,12.4-8.4c4.9-2,10.4-3.1,16.5-3.1
		c6.1,0,11.6,1,16.4,3.1c4.8,2,9,4.8,12.4,8.4c3.4,3.6,6,7.7,7.8,12.3c1.8,4.6,2.7,9.6,2.7,14.8c0,5.1-0.9,10-2.7,14.6
		c-1.8,4.6-4.4,8.7-7.7,12.3c-3.4,3.6-7.5,6.4-12.4,8.4C253.9,141.4,248.4,142.4,242.3,142.4z M222.6,104c0,4.3,0.9,8.1,2.6,11.5
		c1.7,3.3,4.1,5.9,7,7.8c3,1.9,6.3,2.8,10,2.8c3.6,0,6.9-1,9.9-2.9c3-1.9,5.3-4.5,7.1-7.9c1.8-3.3,2.7-7.2,2.7-11.5
		c0-4.2-0.9-8-2.7-11.4c-1.8-3.4-4.1-6-7.1-7.9c-3-1.9-6.3-2.8-9.9-2.8c-3.7,0-7.1,1-10,2.9c-3,1.9-5.3,4.6-7,7.9
		C223.5,95.8,222.6,99.7,222.6,104z"/>
	<path class="st0" d="M293.8,113.1V66.5H313v42.4c0,5.7,1.1,9.9,3.2,12.8c2.1,2.9,5.2,4.3,9.3,4.3c2.5,0,4.9-0.5,7.4-1.5
		c2.4-1,4.7-2.5,6.7-4.4c2.1-2,3.8-4.4,5.2-7.4V66.5h19.2v53c0,2,0.4,3.4,1.1,4.3c0.7,0.9,1.9,1.4,3.5,1.6V141
		c-1.9,0.3-3.5,0.5-4.8,0.6c-1.3,0.1-2.5,0.2-3.5,0.2c-3.4,0-6.2-0.8-8.4-2.3c-2.2-1.6-3.4-3.7-3.8-6.5l-0.4-6
		c-3.3,5-7.7,8.8-12.9,11.4c-5.3,2.6-11,3.9-17.4,3.9c-7.7,0-13.6-2.5-17.6-7.5C295.8,130,293.8,122.7,293.8,113.1z"/>
	<path class="st0" d="M427.9,82.5c-5.8,0-11,1.1-15.6,3.4c-4.6,2.2-7.9,5.5-9.9,9.7V141h-19.2V66.5h17.6v15.4
		c2.7-5.2,6.1-9.2,10.2-12.2c4.1-3,8.5-4.6,13.1-4.9c1.1,0,1.9,0,2.4,0c0.6,0,1.1,0,1.4,0.1V82.5z"/>
	<path class="st0" d="M466.4,142.4c-6.4,0-12.5-1.1-18.4-3.2c-5.8-2.1-10.9-5.2-15.1-9.3l6.9-12.5c4.5,3.6,8.9,6.3,13.3,8
		c4.4,1.7,8.5,2.6,12.6,2.6c3.7,0,6.7-0.6,9-1.9c2.2-1.3,3.4-3.2,3.4-5.8c0-1.8-0.6-3.2-1.9-4.2c-1.2-1-3-1.9-5.4-2.6
		c-2.3-0.8-5.2-1.6-8.5-2.5c-5.5-1.8-10.2-3.5-13.9-5.2c-3.7-1.7-6.5-3.8-8.4-6.4c-1.9-2.6-2.8-5.9-2.8-10c0-4.9,1.3-9.1,3.8-12.7
		c2.5-3.5,6.1-6.3,10.6-8.3c4.5-2,9.9-3,16-3c5.4,0,10.4,0.8,15.2,2.5c4.8,1.7,9.1,4.4,13.1,8.1l-7.7,12.2c-3.8-3-7.5-5.1-10.9-6.5
		c-3.4-1.4-6.9-2.1-10.5-2.1c-2,0-3.9,0.2-5.7,0.7c-1.8,0.5-3.2,1.2-4.3,2.3c-1.1,1.1-1.6,2.6-1.6,4.6c0,1.8,0.5,3.2,1.5,4.2
		c1,1,2.5,1.9,4.6,2.6c2.1,0.8,4.6,1.6,7.5,2.5c6,1.7,11.1,3.4,15.3,5.2c4.2,1.8,7.3,4,9.4,6.6c2.1,2.6,3.2,6.1,3.2,10.7
		c0,7.3-2.7,13.1-8.2,17.2S475.6,142.4,466.4,142.4z"/>
	<path class="st0" d="M544.4,142.4c-6,0-11.5-1-16.4-3c-4.9-2-9-4.8-12.5-8.4c-3.4-3.5-6.1-7.6-8-12.2s-2.8-9.4-2.8-14.5
		c0-7.1,1.6-13.6,4.8-19.4c3.2-5.9,7.8-10.6,13.8-14.1c6-3.5,13-5.3,21.2-5.3c8.2,0,15.3,1.8,21.1,5.3c5.8,3.6,10.3,8.2,13.4,14.1
		c3.1,5.8,4.7,12.1,4.7,18.8c0,1.1,0,2.3-0.1,3.5c-0.1,1.2-0.2,2.2-0.3,2.9h-58.1c0.4,3.7,1.5,7,3.4,9.8c1.9,2.8,4.3,4.9,7.2,6.4
		c2.9,1.4,6,2.2,9.4,2.2c3.8,0,7.4-0.9,10.8-2.8c3.4-1.9,5.7-4.3,7-7.4l16.5,4.6c-1.8,3.8-4.4,7.2-7.8,10.2c-3.4,3-7.4,5.3-12,7
		C555.1,141.6,550,142.4,544.4,142.4z M524.8,97.8h39.3c-0.4-3.7-1.5-7-3.2-9.7c-1.8-2.8-4.1-4.9-7-6.4c-2.9-1.5-6.1-2.3-9.6-2.3
		c-3.4,0-6.6,0.8-9.4,2.3c-2.8,1.5-5.1,3.7-6.9,6.4C526.2,90.8,525.2,94.1,524.8,97.8z"/>
	<path class="st1" d="M484.7,53.7c-3.3,0-6.1-0.6-8.4-1.7c-2.3-1.1-4.2-2.6-5.6-4.6c-1.4-1.9-2.5-4.1-3.1-6.6c-0.7-2.5-1-5-1-7.7
		V12.1h8v21.1c0,1.7,0.2,3.4,0.5,5c0.3,1.6,0.9,3.1,1.7,4.3c0.8,1.3,1.8,2.3,3.1,3c1.3,0.7,2.9,1.1,4.8,1.1c1.9,0,3.6-0.4,4.9-1.1
		c1.3-0.8,2.3-1.8,3.1-3.1c0.8-1.3,1.3-2.7,1.7-4.3c0.3-1.6,0.5-3.2,0.5-4.9V12.1h8v21.1c0,2.8-0.3,5.5-1,8
		c-0.7,2.5-1.7,4.7-3.2,6.5c-1.5,1.9-3.3,3.4-5.6,4.4C490.6,53.2,487.9,53.7,484.7,53.7z"/>
	<path class="st1" d="M528,53.7c-2.7,0-5.2-0.5-7.6-1.6c-2.4-1.1-4.5-2.6-6.3-4.5c-1.8-1.9-3.2-4.2-4.2-6.7c-1-2.6-1.5-5.3-1.5-8.3
		c0-2.8,0.5-5.5,1.5-8c1-2.5,2.4-4.7,4.2-6.6c1.8-1.9,4-3.4,6.4-4.5c2.4-1.1,5.1-1.6,8-1.6c3.9,0,7.2,0.8,10,2.5
		c2.8,1.6,4.9,3.8,6.3,6.5l-6,4.4c-1-2.1-2.5-3.6-4.4-4.7c-1.9-1.1-3.9-1.6-6.1-1.6c-1.7,0-3.3,0.4-4.8,1.1c-1.4,0.7-2.7,1.7-3.7,3
		c-1,1.3-1.9,2.8-2.4,4.4c-0.6,1.7-0.8,3.4-0.8,5.3c0,2,0.3,3.8,0.9,5.5c0.6,1.7,1.5,3.1,2.6,4.4c1.1,1.2,2.4,2.2,3.9,2.9
		c1.5,0.7,3.1,1.1,4.9,1.1c2.1,0,4.1-0.5,6-1.6c1.9-1.1,3.7-2.7,5.4-4.8v7.9C536.7,51.8,532.6,53.7,528,53.7z M539.5,38h-8.3v-5.9
		h15v21.2h-6.6V38z"/>
	<path class="st1" d="M555.8,12.1L567,43.9L578,12.1h8.4l-15.7,41.3h-7.7l-15.7-41.3H555.8z"/>
	<path class="st1" d="M59.4,105.3c-16.5-25.8-33-51.6-49.5-77.4C7.2,23.6,3.7,19.1,6.6,14c2.7-4.8,8.2-4.3,13.1-4.3
		c16.8,0.1,33.5,0.3,50.3,0.4c-2.6,3.2-4.6,6.7-2.3,10.8c7,12.3,14.3,24.4,22.7,35.8c6.4,11.7,14,22.6,21.5,33.6
		c7.8,11.6,7.9,18.7-0.4,30c-7.4,10.2-13.7,21-20.8,32.3c28.7,0,56.7,0,85.5,0c-7.8,12-15.8,22.9-22.1,34.7
		c-5.4,10-12.1,13.3-23.5,12.7c-18.3-1.1-36.7-0.3-55.1-0.3c-2,0-3.9-0.2-5.9-0.4c-4.1-4.5-3.2-9.2-0.3-13.8
		c4.6-7.3,9.2-14.6,13.9-21.8c4-6.2,5.5-12.5,1.2-19.2C76,131.4,67.7,118.3,59.4,105.3z"/>
	<path class="st0" d="M59.4,104.9c8.3,13,16.7,26.1,25,39.1c4.3,6.7,2.8,13-1.2,19.2c-4.7,7.2-9.2,14.5-13.9,21.8
		c-2.9,4.7-3.9,9.3,0.3,13.8c-18,0.3-35.9,0.8-53.9,0.7c-9.8-0.1-12.9-6.5-7.6-14.9C25.1,157.9,42.3,131.4,59.4,104.9z"/>
	<path class="st0" d="M90.4,56.3C82,44.8,74.7,32.8,67.7,20.5c-2.4-4.1-0.3-7.6,2.3-10.8c20.4-0.1,40.8,0.5,61.1-0.6
		c11-0.6,17.9,2.5,23,12.4c5.2,10,12.2,19.1,18.3,28.6c1,1.6,3.3,3.1,2.3,5.1c-1,2.2-3.6,0.9-5.4,0.9C143,56.3,116.7,56.3,90.4,56.3
		z"/>
</g>
</svg>
